<?xml version="1.0" encoding="UTF-8" standalone="no"?>
<svg
   xmlns:dc="http://purl.org/dc/elements/1.1/"
   xmlns:cc="http://creativecommons.org/ns#"
   xmlns:rdf="http://www.w3.org/1999/02/22-rdf-syntax-ns#"
   xmlns:svg="http://www.w3.org/2000/svg"
   xmlns="http://www.w3.org/2000/svg"
   xmlns:sodipodi="http://sodipodi.sourceforge.net/DTD/sodipodi-0.dtd"
   xmlns:inkscape="http://www.inkscape.org/namespaces/inkscape"
   width="1000pt"
   height="1000pt"
   viewBox="0 0 1000 1000"
   version="1.1"
   id="svg3177"
   inkscape:version="0.48.3.1 r9886"
   sodipodi:docname="Love_is_Freedom2.svg">
  <metadata
     id="metadata3201">
    <rdf:RDF>
      <cc:Work
         rdf:about="">
        <dc:format>image/svg+xml</dc:format>
        <dc:type
           rdf:resource="http://purl.org/dc/dcmitype/StillImage" />
        <dc:title></dc:title>
      </cc:Work>
    </rdf:RDF>
  </metadata>
  <defs
     id="defs3199" />
  <sodipodi:namedview
     pagecolor="#ffffff"
     bordercolor="#666666"
     borderopacity="1"
     objecttolerance="10"
     gridtolerance="10"
     guidetolerance="10"
     inkscape:pageopacity="0"
     inkscape:pageshadow="2"
     inkscape:window-width="1600"
     inkscape:window-height="850"
     id="namedview3197"
     showgrid="false"
     inkscape:zoom="0.32"
     inkscape:cx="265.9017"
     inkscape:cy="396.87317"
     inkscape:window-x="0"
     inkscape:window-y="25"
     inkscape:window-maximized="1"
     inkscape:current-layer="svg3177" />
  <path
     d="m 254.94859,21.239466 c -1.12299,0.01 -2.25156,0.024 -3.375,0.05 -35.14,0.54 -69.845,11.385 -99.675,29.825 -25.5,15.63 -47.545,36.555 -65.724997,60.225004 -26.76,35.11 -45.255,75.99 -57.025,118.4 -11.8,42.42 -17.195,86.455 -18.025,130.425 -0.97,38.44 3.445,77.225 15.175,113.925 6.73,21.24 15.885,41.67 27.025,60.95 -17.59,4.38 -35.21,8.575 -52.7499999,13.125 l 0,44.625 c 26.2799999,-6.54 52.6549999,-12.765 78.9749999,-19.175 32.289997,40.95 72.614997,74.67 114.724997,105.05 -59.9,88.65 -120.099997,177.1101 -179.849997,265.85 8.31,-7.2496 16.465,-14.7101 24.875,-21.85 -9.88,15.4 -19.845,30.7601 -29.7249999,46.15 20.9599999,-12.9797 41.9299999,-25.9803 62.8999999,-38.95 -11.28,19.3399 -22.85,38.545 -34.05,57.925 18.85,-21.6 37.44,-43.45 56.3,-65.05 -13.67,24.75 -27.71,49.2851 -41.3,74.075 17.92,-20.2496 35.665,-40.655 53.574997,-60.925 -4.4,20.82 -8.994997,41.5851 -13.274997,62.425 12.969997,-22.2297 25.559997,-44.665 38.399997,-66.975 40.28,-70.46 80.625,-140.88 120.875,-211.35 34.13,23.51 67.635,48.13 97.975,76.45 29.23,27.11 56.695,56.1952 81.425,87.475 17.69,22.3804 34.295,45.715 48.425,70.525 7.82,14.08 15.305,28.5749 19.475,44.225 4.15,-16.2601 12.265,-31.105 20.625,-45.525 13.94,-23.47 30.01,-45.58 46.9,-67 38.75,-48.54 82.21,-93.39 130.05,-133.05 21.9,-18.27 45.2,-34.775 68.35,-51.425 36.7,59.76 73.44,119.5004 110.15,179.25 3.86,6.0504 7.08512,12.715 12.62496,17.475 15.09048,13.91 30.16504,27.8452 45.37504,41.625 -14.79,-22.8096 -29.68512,-45.545 -44.52496,-68.325 26.8096,27.01 53.28496,54.36 80.07496,81.4 -21.93,-33.31 -44.51,-66.21 -66.55,-99.45 20.85,17.25 41.56,34.6649 62.4,51.925 -4.72,-7.2304 -9.75,-14.235 -14.6,-21.375 -48.51,-70.31 -96.97,-140.67 -145.5,-210.95 12.12,-8.97 24.15,-18.06 35.9,-27.5 37.03,-29.75 71.66504,-63.32 97.62496,-103.35 18.01016,-27.71 31.52504,-58.37 39.52504,-90.45 8.15,-32.08 10.73,-65.355 9.75,-98.375 4.03,-1.02 8.1,-1.86 12.10001,-3.05 l 0,-49.7 c -5.11001,1.46 -10.31001,2.56 -15.45001,3.9 -3.76,-33.76 -10.77,-67.23 -22.05,-99.3 -11.39,-32.72 -27.46,-63.955 -48.65,-91.425 -22.56,-29.040004 -51.3,-53.670004 -84.75,-69.250004 -37.72,-17.95 -81.19,-23.475 -122.2,-15.525 -35.76,6.77 -69.325,23.215 -97.875,45.625 -29.8,23.29 -54.375,52.780004 -74.025,85.000004 -14.44,23.74 -26.35,48.99 -36,75.05 -15.39,-41.35 -35.98,-81.03 -63.35,-115.75 -22.5,-28.490004 -49.785,-53.570004 -81.625,-71.250004 -30.3025,-16.9531 -64.83724,-26.8135 -99.65,-26.65 z m 39.625,99.675004 c 0.55,0 1.095,0.265 1.65,0.8 5.55,0.21 11.125,-0.085 16.675,0.175 2.4,1.49 5.34,0.695 8,1.025 1.82,1.15 4.02,0.845 6.05,1.075 1.72,0.62 3.505,0.97 5.225,1.6 1.25,0.14 2.49,0.26 3.75,0.4 1.31,0.51 2.705,0.81 4.075,1.15 1.33,0.38 2.665,0.67 4.025,0.95 1,0.37 2.03,0.725 3.05,1.075 1.65,0.47 3.33,0.775 5,1.225 1.38,0.5 2.75,1.09 4.1,1.7 0.97,0.36 1.95,0.705 2.95,1.025 1.28,0.48 2.57,0.915 3.85,1.425 1.64,0.72 3.31,1.315 5,1.925 0.5,0.26 1.5,0.78 2,1.05 1.07,0.51 2.12,1.03 3.2,1.55 3.31,1.7 6.67,3.355 10,5.025 1.34,0.67 2.68,1.32 4.05,1.95 1.68,0.96 3.27,2.055 4.95,3.025 5.75,3.54 11.495,7.19 16.825,11.35 1.4,0.9 2.7,1.935 4,2.975 1.81,1.13 3.325,2.625 4.925,4.025 2.28,1.28 4.02,3.285 5.95,5.025 4.64,2.88 7.91,7.48 11.95,11.1 3.62,4.05 8.24,7.28 11.1,11.95 2.02,2.3 4.515,4.23 6.025,6.95 1.4,1.58 2.885,3.125 4.025,4.925 1.03,1.31 2.07,2.61 2.95,4.05 0.75,0.92 1.53,1.845 2.3,2.775 4.77,6.57 9.27,13.35 13.65,20.2 1.06,1.97 2.335,3.83 3.425,5.8 1.24,2.03 2.545,4.035 3.625,6.175 0.44,1.52 2.445,3.195 0.925,4.675 -45.1,66.6 -90.175,133.2 -135.275,199.8 -3.42,4.38 -5.785,9.885 -9.875,13.575 -72.22,18.06 -144.545,35.7 -216.775,53.7 -0.92,-1.29 -1.85,-2.575 -2.65,-3.925 -0.9,-1.73 -1.995,-3.325 -3.025,-4.975 -0.24,-0.5 -0.71,-1.525 -0.95,-2.025 -0.68,-1.34 -1.375,-2.67 -2.025,-4 -1.02,-2 -2.02,-3.99 -3,-6 -1.15,-2.27 -2.265,-4.57 -3.475,-6.8 -0.7,-1.65 -1.315,-3.35 -1.975,-5 -0.88,-2.06 -1.625,-4.15 -2.525,-6.2 -0.51,-1.28 -0.935,-2.595 -1.425,-3.875 -0.3,-1.02 -0.61,-2.025 -0.949997,-3.025 -0.32,-1.01 -0.675,-2.01 -1.025,-3 -0.32,-1.01 -0.65,-2.01 -1,-3 -0.32,-1.02 -0.635,-2.01 -0.975,-3 -0.33,-1.03 -0.68,-2.05 -1.05,-3.05 -0.28,-1.36 -0.55,-2.715 -0.95,-4.025 -0.31,-1.35 -0.59,-2.69 -1,-4 -0.32,-1.37 -0.635,-2.72 -1.075,-4.05 -0.23,-1.69 -0.35,-3.41 -1,-5 -0.25,-1.71 -0.275,-3.465 -1.075,-5.025 -0.23,-2.03 0.02,-4.195 -1.05,-6.025 -0.27,-2.34 0.275,-4.9 -1.025,-7 -0.14,-2.55 -0.12,-5.11 -0.25,-7.65 -2.51,-6.07 0.755,-13.3 -1.775,-19.35 -0.17,-3.89 -0.17,-7.77 0,-11.65 1.02,-1.37 0.905,-3.1 0.925,-4.7 0.01,-6.43 -0.145,-12.86 0.075,-19.3 1.79,-3.35 0.47,-7.37 1,-11 1.63,-2.7 0.6,-6.02 1,-9 1.49,-2.4 0.705,-5.325 1.025,-7.975 1.15,-1.81 0.825,-4.03 1.075,-6.05 1.01,-1.84 0.77,-3.99 1,-6 0.78,-1.57 0.825,-3.31 1.075,-5 0.66,-1.6 0.76,-3.345 1,-5.025 0.66,-1.59 0.76,-3.32 1,-5 0.44,-1.33 0.745,-2.69 1.075,-4.05 0.4,-1.32 0.675,-2.66 0.975,-4 0.41,-1.32 0.7,-2.66 1,-4 0.41,-1.32 0.715,-2.66 1.025,-4 0.399997,-1.32 0.669997,-2.675 0.949997,-4.025 0.37,-1.01 0.72,-2.04 1.05,-3.05 0.34,-1 0.655,-1.99 0.975,-3 0.35,-0.99 0.68,-2 1,-3 0.35,-1 0.68,-1.99 1,-3 0.34,-1 0.68,-2 1,-3 0.35,-0.99 0.695,-2 1.025,-3 0.33,-1.02 0.65,-2.03 0.95,-3.05 0.7,-2.01 1.44,-4.005 2.45,-5.875 0.9,-2.04 1.63,-4.125 2.5,-6.175 1.18,-3.4 2.77,-6.67 4.55,-9.8 0.68,-1.65 1.26,-3.335 1.85,-5.025 2,-2.81 3.575,-5.885 5.075,-8.975 0.64,-1.35 1.3,-2.67 1.95,-4 1.02,-1.66 2.11,-3.275 3.05,-4.975 0.97,-1.69 2.045,-3.315 2.975,-5.025 3.81,-6.35 8.48,-12.125 12.65,-18.225 3.14,-3.54 5.83,-7.435 9.3,-10.675 2.1,-3.76 5.75,-6.3 8.6,-9.45 3.86,-3.48 6.98,-7.87 11.45,-10.6 1.93,-1.74 3.63,-3.75 5.95,-5 1.24,-1.09 2.46,-2.21 3.7,-3.3 5.9,-4.18 11.83,-8.375 18.05,-12.075 1.67,-0.97 3.26,-2.065 4.95,-3.025 1.36,-0.63 2.71,-1.27 4.05,-1.95 1.06,-0.52 2.12,-1.055 3.2,-1.575 1.98,-1.02 4.01,-2.02 6,-3.05 1.87,-0.93 3.82,-1.67 5.8,-2.35 0.51,-0.26 1.525,-0.765 2.025,-1.025 1,-0.31 2.01,-0.64 3,-1 1.64,-0.76 3.325,-1.37 5.025,-2 1.01,-0.3 2.04,-0.61 3.05,-0.95 1.01,-0.32 1.99,-0.66 3,-1 1.01,-0.34 2.05,-0.68 3.05,-1.05 1.35,-0.28 2.705,-0.55 4.025,-0.95 1.34,-0.31 2.68,-0.6 4,-1 1.36,-0.32 2.72,-0.635 4.05,-1.075 1.69,-0.25 3.455,-0.295 5.025,-1.075 2.02,-0.25 4.23,0.055 6.05,-1.075 2.65,-0.32 5.565,0.47 7.975,-1 5.55,-0.27 11.125,0.01 16.675,-0.2 0.545,-0.535 1.1,-0.8 1.65,-0.8 z m 415,3.85 c 4.775,0 9.555,0.035 14.325,0.125 3.03,1.71 6.665,0.53 9.975,1 1.8,1.16 4.02,0.86 6.05,1.1 1.83,1.03 3.98,0.77 6,1 1.32,0.49 2.67,0.815 4.05,1.175 1.61,0.49 3.305,0.66 4.975,0.9 1.33,0.43 2.695,0.725 4.075,1.025 1,0.36 2.02,0.71 3.05,1.05 0.98,0.34 1.98,0.655 3,0.975 0.99,0.35 1.98,0.695 3,1.025 1,0.34 2.02,0.64 3.05,0.95 1.69,0.62 3.39,1.23 5.05,1.95 1.25,0.51 2.54,0.98 3.8,1.5 2.76,1.12 5.55,2.13 8.2,3.5 1.32,0.7 2.66,1.39 4,2.05 1.33,0.67 2.65,1.35 4,2 0.92,0.47 1.85,0.915 2.8,1.375 1.65,1.02 3.28,2.105 5,3.025 2.71,1.59 5.20496,3.525 7.97504,5.025 1.42992,0.81 2.80496,1.75 4.22496,2.6 1.27,1.09 2.55,2.17 4,3.05 0.91,0.74 1.85,1.5 2.8,2.25 2.26,1.35 3.94472,3.465 6.27504,4.725 2.72968,2.26 4.80992,5.33 8,7 3.44952,3.19 6.78496,6.515 9.97496,9.975 2.09,4.09 6.5548,6.275 8.72504,10.325 1.40952,1.58 2.89496,3.115 4.02496,4.925 1.03,1.3 2.06488,2.6 2.97504,4 4.82968,6.32 9.12992,13.085 13.34992,19.825 0.97032,1.68 2.04504,3.27 3.02504,4.95 0.48,1.08 1.01488,2.16 1.52504,3.25 0.82968,1.59 1.59496,3.21 2.37496,4.85 0.64,1.03 1.36,2.02 2.1,3 0.27,0.99 0.57,1.995 0.9,2.975 1.05,1.97 2.04,3.965 3.05,5.975 0.27,0.49 0.8048,1.51 1.07504,2 0.67968,1.65 1.29,3.33 1.94992,5 0.72032,1.64 1.35504,3.32 2.02504,5 0.87,2.05 1.62488,4.15 2.52504,6.2 0.5,1.27 0.92496,2.57 1.42496,3.85 0.29,1.01 0.6,2.04 0.95,3.05 0.31,1 0.66488,2 1.02504,3 0.3096,1 0.62496,2 0.97496,3 0.32,1.02 0.6952,2.04 1.07496,3.05 0.25048,1.32 0.50504,2.64 0.87504,3.95 0.35,1.01 0.72496,2.04 1.12496,3.05 0.26016,1.35 0.52504,2.705 0.92504,4.025 0.3,1.34 0.6048,2.68 1.02504,4 0.28984,1.33 0.56496,2.68 0.97496,4 0.31,1.36 0.61504,2.72 1.07496,4.05 0.22032,1.66 0.42024,3.355 0.9,4.975 0.3404,1.37 0.65016,2.73 1.2,4.05 0.11016,1.59 0.17504,3.185 0.27504,4.775 0.31,0.64 0.94,1.92 1.25,2.55 -98.84,24.52 -197.73,48.8 -296.55,73.4 -0.07,0.3 -0.205,0.91 -0.275,1.2 -5.56,-9.3 -12.225,-17.92 -18.225,-26.95 -26.7,-38.66 -53.265,-77.42 -80.075,-116 0.35,-0.75 0.715,-1.485 1.075,-2.225 0.24,-0.5 0.75,-1.5 1,-2 0.46,-0.93 0.905,-1.86 1.375,-2.8 1.01,-1.66 2.11,-3.275 3.05,-4.975 0.96,-1.68 2.055,-3.315 2.975,-5.025 4.21,-6.41 8.215,-12.975 12.925,-19.025 0.89,-1.4 1.945,-2.7 2.975,-4 1.42,-2.21 3.425,-3.95 4.775,-6.2 1.41,-1.61 2.975,-3.13 3.975,-5.05 5.21,-4.83 9.14,-10.78 14.4,-15.55 2.17,-2.17 4.275,-4.385 6.575,-6.425 3.18,-1.67 5.255,-4.73 7.975,-7 3.65,-2.3 6.495,-5.675 10.175,-7.975 6.1,-3.85 11.645,-8.49 17.875,-12.15 0.52,-0.22 1.57,-0.64 2.1,-0.85 1.38,-0.89 2.7,-1.86 4.1,-2.75 0.52,-0.21 1.58,-0.63 2.1,-0.85 1.67,-0.99 3.28,-2.08 4.95,-3.1 2.01,-0.97 3.99,-1.975 6,-2.975 1.67,-0.62 3.35,-1.225 5,-1.925 2.46,-1.44 5.095,-2.545 7.775,-3.525 1.66,-0.71 3.365,-1.32 5.075,-1.95 1.01,-0.29 2.03,-0.62 3.05,-0.95 0.99,-0.33 2,-0.675 3,-1.025 1,-0.32 1.99,-0.635 3,-0.975 1.01,-0.33 2.03,-0.68 3.05,-1.05 1.34,-0.28 2.685,-0.57 4.025,-0.95 1.34,-0.34 2.72,-0.645 4.05,-1.075 1.66,-0.24 3.355,-0.41 4.975,-0.9 1.34,-0.35 2.695,-0.685 4.025,-1.125 1.7,-0.25 3.49,-0.25 5.05,-1.1 2.33,-0.28 4.9,0.3 7,-1.05 2.98,-0.38 6.28,0.61 9,-1 4.77,-0.09 9.55,-0.125 14.325,-0.125 z m -204.5,152.5 c 7.17,10.33 13.24,21.365 20,31.975 19.41,31.6 38.84,63.2 58.25,94.8 -46.54,11.46 -93.07,23.01 -139.6,34.5 -11.61,2.99 -23.345,5.5 -34.875,8.8 30.88,-53.33 61.21,-107.005 91.95,-160.425 1.87,-3 3.845,-6.05 4.275,-9.65 z m 411.5,93.675 c 0.46,4.46 -1.02496,9.335 0.87504,13.525 0.16984,3.87 0.19496,7.76 0.025,11.65 -1.04,1.36 -0.91504,3.075 -0.92496,4.675 0,4.45 0.12496,8.875 -0.075,13.325 -1.63,2.7 -0.61,6.02 -1,9 -1.36,2.09 -0.79,4.65 -1.05,7 -1.12,1.81 -0.81,4.005 -1.05,6.025 -0.8,1.56 -0.82488,3.3 -1.07504,5 -0.64976,1.6 -0.77976,3.325 -1,5.025 -0.44976,1.32 -0.75496,2.69 -1.07496,4.05 -0.39,1.32 -0.66488,2.665 -0.92504,4.025 -0.4,1 -0.77496,2.03 -1.12496,3.05 -0.37,1.3 -0.62488,2.61 -0.87504,3.95 -0.38984,1 -0.74496,2.03 -1.07496,3.05 -0.34,1.01 -0.66,2.03 -0.95,3.05 -0.5,1.27 -0.94,2.555 -1.45,3.825 -0.59,1.36 -1.13512,2.755 -1.57496,4.175 -0.61016,1.7 -1.21504,3.405 -1.92504,5.075 -0.98,2.66 -2.11,5.275 -3.45,7.775 l -2,4 c -0.99,2.01 -1.99,4.01 -3,6 -0.99,2.01 -1.99504,3.99 -2.97504,6 -0.84976,1.41 -1.80496,2.78 -2.62496,4.2 -0.93,1.71 -2.01488,3.31 -2.97504,5 -2.88984,4.74 -5.87496,9.48 -9.37496,13.8 -1.16,1.78 -2.5548,3.405 -3.72504,5.175 -1.05984,1.31 -2.13984,2.625 -3,4.075 -1.42976,1.59 -2.96496,3.105 -3.97496,5.025 -1.74,1.94 -3.8,3.65 -5,6 -9.51,9.79 -19.18512,19.455 -28.97496,28.975 -3.3,1.59 -5.08504,5.1 -8.37504,6.7 -1.93,1.74 -3.66,3.745 -5.95,5.025 -1.6,1.41 -3.15,2.92 -5,4 -1.6,1.4 -3.12496,2.895 -4.97496,3.975 -0.94,0.75 -1.85504,1.53 -2.77504,2.3 -1.82,1.13 -3.43,2.56 -5.25,3.7 -4.1,4.1 -9.42,6.595 -13.85,10.275 -3.81,2.41 -7.19,5.435 -11.1,7.675 -0.68,0.52 -1.35,1.06 -2,1.6 -21,-31.01 -42.495,-61.7 -63.675,-92.6 -21.18,-30.62 -42.205,-61.355 -63.475,-91.925 91.27,-21.97 182.5,-44.175 273.75,-66.225 z m -308.725,72.9 c 40.07,65.45 80.335,130.78 120.475,196.2 1.32,2.17 2.69,4.32 4.1,6.45 -3.79,2.58 -7.53,5.205 -11.45,7.575 -9.62,6.01 -19.065,12.355 -28.275,18.975 -3.55,2.42 -7.3,4.56 -10.55,7.4 -2.88,1.67 -5.44,3.795 -8.15,5.725 -1.31,1.04 -2.63,2.095 -4.05,2.975 -0.93,0.75 -1.855,1.515 -2.775,2.275 -1.86,1.07 -3.36,2.59 -4.95,4 -1.87,1.06 -3.425,2.58 -5.025,4 -2.29,1.33 -3.99,3.425 -6.3,4.725 -1.58,1.4 -3.08,2.89 -4.65,4.3 -2.84,1.41 -4.525,4.32 -7.375,5.7 -2.32,2 -4.22,4.57 -7,6 -2.64,2.33 -4.995,4.96 -7.625,7.3 -4.86,2.65 -7.515,8.04 -12.375,10.7 -11.12,10.84 -22.1,21.83 -32.95,32.95 -3.2,5.3 -8.805,8.58 -12.325,13.65 -2.15,3.13 -5.225,5.47 -7.675,8.35 -1.39,2.84 -4.29,4.545 -5.7,7.375 -1.41,1.57 -2.9,3.07 -4.3,4.65 -1.03,1.9 -2.555,3.415 -3.975,5.025 -1.06,1.86 -2.595,3.41 -4.025,5 -1.13,1.82 -2.545,3.425 -3.725,5.225 -1.06,1.29 -2.115,2.585 -2.975,4.025 -0.77,0.92 -1.55,1.835 -2.3,2.775 -5.61,7.83 -10.985,15.83 -16.075,24 -1.41,2.29 -2.835,4.58 -4.025,7 -0.5,1.06 -1.025,2.135 -1.525,3.225 -0.25,0.5 -0.765,1.5 -1.025,2 -0.48,0.92 -0.955,1.86 -1.425,2.8 -0.53,1.06 -1.085,2.105 -1.625,3.175 -0.35,0.97 -0.675,1.935 -0.975,2.925 -0.37,0.98 -0.71,1.99 -1.05,3 -0.33,1.15 -0.625,2.31 -0.875,3.5 l -1.45,0 c -0.29,-1.16 -0.63,-2.305 -1,-3.425 -0.77,-1.63 -1.39,-3.295 -2,-4.975 -0.55,-1.08 -1.095,-2.15 -1.625,-3.2 -0.48,-1.28 -0.88,-2.54 -1.35,-3.8 -0.67,-1.35 -1.35,-2.685 -2,-4.025 -0.86,-1.41 -1.805,-2.76 -2.675,-4.15 -0.23,-0.51 -0.685,-1.515 -0.925,-2.025 -0.47,-0.95 -0.94,-1.895 -1.4,-2.825 -1.02,-1.66 -2.115,-3.265 -3.025,-4.975 -4.91,-7.93 -10.4,-15.5 -15.65,-23.2 -1.1,-1.3 -2.16,-2.59 -3,-4.05 -1.09,-1.25 -2.21,-2.47 -3.3,-3.7 -2.21,-3.7 -5.305,-6.745 -7.725,-10.275 -3.11,-3.56 -5.825,-7.44 -9.275,-10.7 -1.81,-3.73 -5.9,-5.655 -7.7,-9.375 -3.61,-4.03 -7.69,-7.595 -11.3,-11.625 -0.68,-1.3 -1.56,-2.455 -2.6,-3.475 -6.35,-6.29 -12.685,-12.625 -18.975,-18.975 -1.02,-1.04 -2.17,-1.915 -3.45,-2.575 -4.04,-3.61 -7.595,-7.7 -11.625,-11.3 -3.59,-1.94 -5.89,-5.47 -9,-8 -2.36,-1.2 -4.06,-3.28 -6,-5 -4.2,-3.06 -8.175,-6.49 -12.025,-10 -1.47,-0.86 -2.765,-1.925 -4.075,-2.975 -3.58,-2.34 -6.725,-5.275 -10.175,-7.775 -3.09,-2.68 -6.805,-4.515 -9.825,-7.275 -1.42,-0.86 -2.78,-1.81 -4.2,-2.65 -3.63,-3.2 -7.885,-5.53 -11.825,-8.3 -7.68,-4.98 -15.135,-10.37 -22.975,-15.1 -4.73,-2.77 -9.01,-6.205 -13.8,-8.875 30.06,-53.07 60.52,-105.905 90.75,-158.875 76.83,-18.54 153.615,-37.295 230.475,-55.725 -0.19,-0.44 -0.56,-1.31 -0.75,-1.75 z m -305.825,75.8 c -23.67,34.72 -47.05,69.63 -70.8,104.3 -6.29,-4.7 -12.855,-9.005 -19.075,-13.775 -1.78,-1.17 -3.375,-2.605 -5.175,-3.725 -0.93,-0.77 -1.855,-1.54 -2.775,-2.3 -1.43,-0.88 -2.74,-1.92 -4.05,-2.95 -2.19,-1.44 -3.95,-3.425 -6.2,-4.775 -1.61,-1.42 -3.15,-2.955 -5.05,-3.975 -1.57,-1.41 -3.08,-2.9 -4.65,-4.3 -3.7,-1.84 -5.64,-5.88 -9.35,-7.7 -8.24,-7.9 -16.225,-16.06 -24.275,-24.15 43.38,-10.24 86.675,-20.965 130.025,-31.375 7.11,-1.79 14.295,-3.325 21.375,-5.275 z"
     id="path3181"
     inkscape:connector-curvature="0"
     style="fill:#da0404;fill-opacity:1" />
</svg>
